<svg width="416" height="128" viewBox="0 0 416 128" fill="none" xmlns="http://www.w3.org/2000/svg">
<rect width="416" height="128" fill="#1E1E1E"/>
<g filter="url(#filter0_d_0_1)">
<path d="M410.419 74.7842C410.419 72.0964 409.683 70.0803 408.211 68.7363C406.891 67.4164 404.952 66.7144 402.395 66.6318L401.875 66.624C398.932 66.624 396.627 67.488 394.963 69.2158L394.672 69.5469C393.266 71.2343 392.563 73.428 392.563 76.1279C392.563 78.6239 393.267 80.6398 394.675 82.1758C396.055 83.6157 398.025 84.3806 400.586 84.4707L401.107 84.4804C403.807 84.4804 405.973 83.7208 407.604 82.2021L407.923 81.8877C409.483 80.2077 410.312 78.0215 410.41 75.3291L410.419 74.7842ZM411.419 74.7842C411.419 77.9261 410.525 80.5551 408.656 82.5683L408.65 82.5752L408.643 82.582C406.753 84.5441 404.2 85.4804 401.107 85.4804C398.11 85.4804 395.669 84.6587 393.953 82.8681L393.946 82.8603L393.938 82.8515C392.329 81.0959 391.563 78.8218 391.563 76.1279C391.563 73.0551 392.422 70.4881 394.229 68.5361L394.243 68.5224C396.137 66.5558 398.726 65.624 401.875 65.624C404.826 65.6241 407.224 66.3584 408.884 67.9971H408.885C410.63 69.5899 411.419 71.9174 411.419 74.7842Z" fill="black"/>
</g>
<g filter="url(#filter1_d_0_1)">
<path d="M401.107 84.48C398.291 84.48 396.147 83.712 394.675 82.176C393.267 80.64 392.563 78.624 392.563 76.128C392.563 73.248 393.363 70.944 394.963 69.216C396.627 67.488 398.931 66.624 401.875 66.624C404.691 66.624 406.803 67.328 408.211 68.736C409.683 70.08 410.419 72.096 410.419 74.784C410.419 77.728 409.587 80.096 407.923 81.888C406.259 83.616 403.987 84.48 401.107 84.48Z" fill="white"/>
</g>
<path d="M366.823 48.384C366.695 51.584 366.631 54.08 366.631 55.872C366.631 60.48 366.855 64.096 367.303 66.72C367.815 69.28 368.615 71.136 369.703 72.288C370.855 73.376 372.423 73.92 374.407 73.92C375.431 73.92 376.647 73.6 378.055 72.96C379.463 72.32 380.743 71.488 381.895 70.464C382.599 69.824 383.303 69.504 384.007 69.504C384.775 69.504 385.383 69.952 385.831 70.848C386.343 71.68 386.599 72.704 386.599 73.92C386.599 75.136 386.343 76.32 385.831 77.472C385.383 78.624 384.679 79.584 383.719 80.352C380.391 83.104 376.615 84.48 372.391 84.48C366.311 84.48 361.863 81.952 359.047 76.896C356.231 71.776 354.823 65.12 354.823 56.928C354.823 54.112 354.919 51.264 355.111 48.384H351.367C349.447 48.384 348.135 48.032 347.431 47.328C346.791 46.624 346.471 45.504 346.471 43.968C346.471 40.384 347.911 38.592 350.791 38.592H356.263C357.351 31.552 359.015 25.12 361.255 19.296C363.495 13.472 366.183 8.83199 369.319 5.37599C372.519 1.91999 375.943 0.191998 379.591 0.191998C382.279 0.191998 384.391 1.376 385.927 3.744C387.463 6.112 388.231 9.088 388.231 12.672C388.231 22.592 384.071 31.232 375.751 38.592H386.503C387.527 38.592 388.263 38.816 388.711 39.264C389.159 39.712 389.383 40.544 389.383 41.76C389.383 46.176 385.767 48.384 378.535 48.384H366.823ZM376.999 9.408C376.039 9.408 374.951 10.624 373.735 13.056C372.583 15.424 371.463 18.752 370.375 23.04C369.351 27.264 368.487 31.968 367.783 37.152C371.559 33.888 374.375 30.24 376.231 26.208C378.151 22.112 379.111 18.4 379.111 15.072C379.111 11.296 378.407 9.408 376.999 9.408Z" fill="white"/>
<path d="M356.112 62.592C356.944 62.592 357.583 62.976 358.031 63.744C358.543 64.512 358.799 65.568 358.799 66.912C358.799 69.472 358.191 71.456 356.975 72.864C354.607 75.744 351.248 78.4 346.896 80.832C342.608 83.264 338 84.48 333.072 84.48C326.352 84.48 321.135 82.656 317.423 79.008C313.711 75.36 311.855 70.368 311.855 64.032C311.855 59.616 312.783 55.52 314.639 51.744C316.495 47.904 319.055 44.864 322.319 42.624C325.647 40.384 329.392 39.264 333.552 39.264C337.264 39.264 340.239 40.384 342.479 42.624C344.719 44.8 345.84 47.776 345.84 51.552C345.84 55.968 344.239 59.776 341.039 62.976C337.903 66.112 332.56 68.608 325.008 70.464C326.608 73.408 329.648 74.88 334.128 74.88C337.008 74.88 340.271 73.888 343.919 71.904C347.631 69.856 350.832 67.2 353.52 63.936C354.288 63.04 355.152 62.592 356.112 62.592ZM331.919 48.672C329.551 48.672 327.535 50.048 325.871 52.8C324.271 55.552 323.471 58.88 323.471 62.784V62.976C327.247 62.08 330.224 60.736 332.4 58.944C334.576 57.152 335.664 55.072 335.664 52.704C335.664 51.488 335.312 50.528 334.608 49.824C333.968 49.056 333.071 48.672 331.919 48.672Z" fill="white"/>
<path d="M318.424 62.592C319.256 62.592 319.896 62.976 320.344 63.744C320.856 64.512 321.112 65.568 321.112 66.912C321.112 69.472 320.504 71.456 319.288 72.864C316.92 75.744 313.56 78.4 309.208 80.832C304.92 83.264 300.312 84.48 295.384 84.48C288.664 84.48 283.448 82.656 279.736 79.008C276.024 75.36 274.168 70.368 274.168 64.032C274.168 59.616 275.096 55.52 276.952 51.744C278.808 47.904 281.368 44.864 284.632 42.624C287.96 40.384 291.704 39.264 295.864 39.264C299.576 39.264 302.552 40.384 304.792 42.624C307.032 44.8 308.152 47.776 308.152 51.552C308.152 55.968 306.552 59.776 303.352 62.976C300.216 66.112 294.872 68.608 287.32 70.464C288.92 73.408 291.96 74.88 296.44 74.88C299.32 74.88 302.584 73.888 306.232 71.904C309.944 69.856 313.144 67.2 315.832 63.936C316.6 63.04 317.464 62.592 318.424 62.592ZM294.232 48.672C291.864 48.672 289.848 50.048 288.184 52.8C286.584 55.552 285.784 58.88 285.784 62.784V62.976C289.56 62.08 292.536 60.736 294.712 58.944C296.888 57.152 297.976 55.072 297.976 52.704C297.976 51.488 297.624 50.528 296.92 49.824C296.28 49.056 295.384 48.672 294.232 48.672Z" fill="white"/>
<path d="M238.736 84.48C236.304 84.48 234.577 83.2 233.553 80.64C232.593 78.08 232.113 73.984 232.113 68.352C232.113 60.032 233.297 52.128 235.665 44.64C236.241 42.784 237.169 41.44 238.449 40.608C239.793 39.712 241.648 39.264 244.016 39.264C245.296 39.264 246.192 39.424 246.704 39.744C247.216 40.064 247.473 40.672 247.473 41.568C247.473 42.592 246.993 44.896 246.033 48.48C245.393 51.04 244.881 53.28 244.497 55.2C244.113 57.12 243.792 59.488 243.536 62.304C245.648 56.8 248.017 52.32 250.641 48.864C253.265 45.408 255.824 42.944 258.32 41.472C260.88 40 263.216 39.264 265.328 39.264C269.488 39.264 271.569 41.344 271.569 45.504C271.569 46.336 271.28 48.352 270.704 51.552C270.192 54.112 269.936 55.712 269.936 56.352C269.936 58.592 270.736 59.712 272.336 59.712C274.128 59.712 276.433 58.304 279.249 55.488C280.081 54.656 280.945 54.24 281.841 54.24C282.673 54.24 283.312 54.624 283.76 55.392C284.272 56.096 284.529 57.056 284.529 58.272C284.529 60.64 283.888 62.496 282.608 63.84C280.816 65.696 278.704 67.296 276.272 68.64C273.904 69.92 271.377 70.56 268.689 70.56C265.297 70.56 262.705 69.696 260.913 67.968C259.185 66.24 258.32 63.904 258.32 60.96C258.32 60 258.416 59.04 258.608 58.08C258.736 56.8 258.801 55.936 258.801 55.488C258.801 54.464 258.449 53.952 257.745 53.952C256.785 53.952 255.504 55.04 253.904 57.216C252.368 59.328 250.833 62.144 249.297 65.664C247.761 69.184 246.513 72.896 245.553 76.8C244.849 79.808 244.017 81.856 243.057 82.944C242.161 83.968 240.72 84.48 238.736 84.48Z" fill="white"/>
<path d="M236.966 62.592C237.798 62.592 238.438 62.976 238.886 63.744C239.398 64.512 239.654 65.568 239.654 66.912C239.654 69.472 239.046 71.456 237.83 72.864C235.078 76.256 232.102 79.04 228.902 81.216C225.766 83.392 222.182 84.48 218.15 84.48C214.758 84.48 212.006 83.264 209.894 80.832C206.246 83.2 202.438 84.416 198.47 84.48C197.638 96.832 195.75 107.136 192.806 115.392C189.862 123.712 185.542 127.872 179.846 127.872C176.39 127.872 173.83 126.624 172.166 124.128C170.502 121.632 169.67 118.176 169.67 113.76C169.67 107.488 171.11 100.16 173.99 91.776C176.87 83.456 181.318 74.272 187.334 64.224C187.334 54.88 187.27 48.384 187.142 44.736C187.078 42.88 187.814 41.408 189.35 40.32C190.886 39.232 192.806 38.688 195.11 38.688C196.454 38.688 197.414 38.976 197.99 39.552C198.63 40.064 198.982 41.12 199.046 42.72C199.046 44.32 199.078 45.504 199.142 46.272C201.19 43.712 203.206 41.888 205.19 40.8C207.174 39.648 209.286 39.072 211.526 39.072C215.11 39.072 218.022 40.512 220.262 43.392C222.566 46.272 223.718 50.048 223.718 54.72C223.718 58.112 223.174 61.408 222.086 64.608C220.998 67.808 219.494 70.72 217.574 73.344C218.918 73.728 220.038 73.92 220.934 73.92C223.046 73.92 225.062 73.152 226.982 71.616C228.902 70.08 231.366 67.52 234.374 63.936C235.142 63.04 236.006 62.592 236.966 62.592ZM198.95 75.264C201.254 74.752 203.366 73.504 205.286 71.52C207.27 69.472 208.838 66.976 209.99 64.032C211.142 61.024 211.718 57.888 211.718 54.624C211.718 52.704 211.334 51.264 210.566 50.304C209.798 49.28 208.774 48.768 207.494 48.768C205.19 48.768 202.406 51.2 199.142 56.064C199.078 58.88 199.046 63.008 199.046 68.448C199.046 71.392 199.014 73.664 198.95 75.264ZM180.614 118.464C182.342 118.464 183.782 114.688 184.934 107.136C186.086 99.648 186.822 90.304 187.142 79.104C184.39 85.504 182.214 91.616 180.614 97.44C179.014 103.264 178.214 108.16 178.214 112.128C178.214 114.176 178.47 115.744 178.982 116.832C179.43 117.92 179.974 118.464 180.614 118.464Z" fill="white"/>
<path d="M121.08 84.48C118.648 84.48 116.92 83.2 115.896 80.64C114.936 78.08 114.456 73.984 114.456 68.352C114.456 60.032 115.64 52.128 118.008 44.64C118.584 42.784 119.512 41.44 120.792 40.608C122.136 39.712 123.992 39.264 126.36 39.264C127.64 39.264 128.536 39.424 129.048 39.744C129.56 40.064 129.816 40.672 129.816 41.568C129.816 42.592 129.336 44.896 128.376 48.48C127.736 51.04 127.224 53.28 126.84 55.2C126.456 57.056 126.136 59.392 125.88 62.208C127.608 57.216 129.656 52.992 132.024 49.536C134.456 46.08 136.92 43.52 139.416 41.856C141.976 40.128 144.376 39.264 146.616 39.264C148.856 39.264 150.424 39.776 151.32 40.8C152.28 41.824 152.76 43.392 152.76 45.504C152.76 47.552 152.152 51.264 150.936 56.64C150.424 58.944 150.072 60.672 149.88 61.824C153.08 53.952 156.632 48.224 160.536 44.64C164.44 41.056 168.088 39.264 171.48 39.264C175.64 39.264 177.72 41.344 177.72 45.504C177.72 48 177.016 52.512 175.608 59.04C174.392 64.608 173.784 68.288 173.784 70.08C173.784 72.64 174.712 73.92 176.568 73.92C177.848 73.92 179.352 73.152 181.08 71.616C182.872 70.016 185.24 67.456 188.184 63.936C188.952 63.04 189.816 62.592 190.776 62.592C191.608 62.592 192.248 62.976 192.696 63.744C193.208 64.512 193.464 65.568 193.464 66.912C193.464 69.472 192.856 71.456 191.64 72.864C188.888 76.256 185.912 79.04 182.712 81.216C179.576 83.392 175.992 84.48 171.96 84.48C168.696 84.48 166.232 83.552 164.568 81.696C162.904 79.776 162.072 77.024 162.072 73.44C162.072 71.648 162.52 68.448 163.416 63.84C164.248 59.808 164.664 57.024 164.664 55.488C164.664 54.464 164.312 53.952 163.608 53.952C162.776 53.952 161.592 55.04 160.056 57.216C158.52 59.328 156.984 62.144 155.448 65.664C153.912 69.184 152.664 72.896 151.704 76.8C151 79.872 150.168 81.92 149.208 82.944C148.312 83.968 146.84 84.48 144.792 84.48C142.68 84.48 141.08 83.488 139.992 81.504C138.968 79.456 138.456 76.992 138.456 74.112C138.456 71.68 138.776 68.16 139.416 63.552C139.928 59.456 140.184 56.768 140.184 55.488C140.184 54.464 139.832 53.952 139.128 53.952C138.168 53.952 136.952 55.104 135.48 57.408C134.008 59.712 132.568 62.656 131.16 66.24C129.816 69.824 128.728 73.344 127.896 76.8C127.192 79.808 126.36 81.856 125.4 82.944C124.504 83.968 123.064 84.48 121.08 84.48Z" fill="white"/>
<path d="M80.9785 84.48C77.0105 84.48 73.8425 83.04 71.4745 80.16C69.1065 77.28 67.9225 73.504 67.9225 68.832C67.9225 63.712 69.1065 58.88 71.4745 54.336C73.8425 49.728 76.9785 46.048 80.8825 43.296C84.8505 40.48 89.0425 39.072 93.4585 39.072C94.8665 39.072 95.7945 39.36 96.2425 39.936C96.7545 40.448 97.1705 41.408 97.4905 42.816C98.8345 42.56 100.243 42.432 101.715 42.432C104.851 42.432 106.419 43.552 106.419 45.792C106.419 47.136 105.938 50.336 104.979 55.392C103.507 62.752 102.771 67.872 102.771 70.752C102.771 71.712 102.995 72.48 103.443 73.056C103.955 73.632 104.595 73.92 105.363 73.92C106.579 73.92 108.051 73.152 109.779 71.616C111.507 70.016 113.842 67.456 116.786 63.936C117.555 63.04 118.419 62.592 119.379 62.592C120.211 62.592 120.851 62.976 121.299 63.744C121.811 64.512 122.067 65.568 122.067 66.912C122.067 69.472 121.459 71.456 120.243 72.864C117.619 76.128 114.835 78.88 111.891 81.12C108.947 83.36 106.099 84.48 103.347 84.48C101.235 84.48 99.2825 83.776 97.4905 82.368C95.7625 80.896 94.4505 78.912 93.5545 76.416C90.2265 81.792 86.0345 84.48 80.9785 84.48ZM84.4345 74.784C85.8425 74.784 87.1865 73.952 88.4665 72.288C89.7465 70.624 90.6745 68.416 91.2505 65.664L94.8025 48C92.1145 48.064 89.6185 49.088 87.3145 51.072C85.0745 52.992 83.2825 55.552 81.9385 58.752C80.5945 61.952 79.9225 65.344 79.9225 68.928C79.9225 70.912 80.3065 72.384 81.0745 73.344C81.9065 74.304 83.0265 74.784 84.4345 74.784Z" fill="white"/>
<path d="M38.8001 1.99599C43.5226 1.99601 47.8687 2.70775 51.8333 4.1376H51.8324C55.807 5.5069 58.9899 7.63311 61.3587 10.5263L61.5853 10.8017C63.8861 13.6666 65.0276 17.1477 65.0277 21.2157C65.0277 25.2826 64.4177 28.4299 63.1341 30.5917C61.8288 32.79 59.8739 33.908 57.3285 33.9081C55.5526 33.9081 54.0229 33.358 52.7718 32.246L52.7669 32.2411L52.7611 32.2362C51.5796 31.1242 50.972 29.7785 50.972 28.2235C50.972 26.995 51.0678 25.8551 51.2621 24.8056C51.4543 22.8823 51.5482 21.6967 51.5482 21.2157C51.5481 19.957 51.242 18.8686 50.6429 17.9335C50.0421 16.9958 49.1289 16.1852 47.8753 15.5126C45.3432 14.1539 42.1659 13.4599 38.3197 13.4599C32.8672 13.4599 28.7602 14.4763 25.9339 16.4423L25.932 16.4442C23.1942 18.3302 21.8285 20.9884 21.8285 24.4804C21.8285 26.7986 22.5251 28.7585 23.9095 30.3876C25.401 32.0655 27.239 33.4693 29.429 34.5956C31.6479 35.7367 34.7666 37.1055 38.7923 38.703L38.7972 38.705C43.6697 40.6925 47.5924 42.4922 50.5589 44.1044C53.5682 45.7398 56.1191 47.9646 58.2093 50.7733H58.2083C60.3951 53.6254 61.4759 57.1271 61.4759 61.2479C61.4759 68.7081 58.7091 74.5545 53.1703 78.7284L52.6253 79.1278C46.8185 83.2383 39.0575 85.2685 29.3919 85.2685C20.823 85.2684 13.9047 83.6584 8.67905 80.3925L8.67514 80.3895C3.39541 77.0237 0.764008 71.895 0.764008 65.0878C0.764031 61.5228 1.37811 58.7221 2.67026 56.7499C3.98583 54.7421 5.94125 53.7401 8.4642 53.7401C10.281 53.7402 11.8098 54.2129 13.0062 55.1981C14.2092 56.189 14.8197 57.4825 14.8197 59.0399C14.8197 60.327 14.7237 61.4683 14.5287 62.4599C14.5202 62.7684 14.4518 63.2297 14.3353 63.8153C14.2745 64.4308 14.2445 65.0788 14.2445 65.7597C14.2445 67.112 14.5804 68.2688 15.2386 69.2489C15.8984 70.2313 16.9018 71.0668 18.2796 71.7411L18.8275 71.9882C21.6338 73.1875 25.4641 73.8036 30.3519 73.8036C35.7419 73.8036 39.8927 72.8512 42.8548 70.9999C45.7868 69.104 47.2279 66.508 47.2279 63.1679C47.2278 61.1109 46.5668 59.3768 45.2474 57.9374L45.2406 57.9306C43.8808 56.3853 42.1758 55.1121 40.1175 54.1142L40.1068 54.1083C38.0164 53.0314 35.0588 51.7271 31.2269 50.1942L29.4154 49.4765C25.287 47.8125 21.8374 46.2187 19.0706 44.6942L19.0667 44.6923V44.6913C15.9325 42.9282 13.2248 40.5461 10.9456 37.5507L10.9388 37.5409C8.69022 34.4325 7.58045 30.6128 7.58041 26.1122C7.58041 21.4108 8.82193 17.2151 11.3138 13.5429L11.3177 13.538C13.8745 9.86678 17.5055 7.02783 22.1859 5.0126L22.1888 5.01162C26.9353 2.99604 32.4765 1.99599 38.8001 1.99599Z" fill="white" stroke="black"/>
<defs>
<filter id="filter0_d_0_1" x="387.563" y="65.624" width="27.8564" height="27.8564" filterUnits="userSpaceOnUse" color-interpolation-filters="sRGB">
<feFlood flood-opacity="0" result="BackgroundImageFix"/>
<feColorMatrix in="SourceAlpha" type="matrix" values="0 0 0 0 0 0 0 0 0 0 0 0 0 0 0 0 0 0 127 0" result="hardAlpha"/>
<feOffset dy="4"/>
<feGaussianBlur stdDeviation="2"/>
<feComposite in2="hardAlpha" operator="out"/>
<feColorMatrix type="matrix" values="0 0 0 0 0 0 0 0 0 0 0 0 0 0 0 0 0 0 0.25 0"/>
<feBlend mode="normal" in2="BackgroundImageFix" result="effect1_dropShadow_0_1"/>
<feBlend mode="normal" in="SourceGraphic" in2="effect1_dropShadow_0_1" result="shape"/>
</filter>
<filter id="filter1_d_0_1" x="388.563" y="66.624" width="25.856" height="25.856" filterUnits="userSpaceOnUse" color-interpolation-filters="sRGB">
<feFlood flood-opacity="0" result="BackgroundImageFix"/>
<feColorMatrix in="SourceAlpha" type="matrix" values="0 0 0 0 0 0 0 0 0 0 0 0 0 0 0 0 0 0 127 0" result="hardAlpha"/>
<feOffset dy="4"/>
<feGaussianBlur stdDeviation="2"/>
<feComposite in2="hardAlpha" operator="out"/>
<feColorMatrix type="matrix" values="0 0 0 0 0 0 0 0 0 0 0 0 0 0 0 0 0 0 0.25 0"/>
<feBlend mode="normal" in2="BackgroundImageFix" result="effect1_dropShadow_0_1"/>
<feBlend mode="normal" in="SourceGraphic" in2="effect1_dropShadow_0_1" result="shape"/>
</filter>
</defs>
</svg>
